<?xml version="1.0" standalone="no"?>
<!DOCTYPE svg PUBLIC "-//W3C//DTD SVG 20010904//EN"
 "http://www.w3.org/TR/2001/REC-SVG-20010904/DTD/svg10.dtd">
<svg version="1.0" xmlns="http://www.w3.org/2000/svg"
 width="512.000000pt" height="512.000000pt" viewBox="0 0 512.000000 512.000000"
 preserveAspectRatio="xMidYMid meet">
<metadata>
Created by potrace 1.11, written by Peter Selinger 2001-2013
</metadata>
<g transform="translate(0.000000,512.000000) scale(0.100000,-0.100000)"
fill="#000000" stroke="none">
<path d="M2380 5114 c-636 -56 -1194 -315 -1632 -756 -389 -393 -633 -881
-720 -1443 -31 -200 -31 -540 0 -740 45 -289 119 -523 247 -782 348 -701 1007
-1211 1768 -1367 121 -25 135 -26 517 -26 382 0 396 1 517 26 763 157 1420
665 1768 1367 128 259 202 493 247 782 31 200 31 540 0 740 -88 566 -335 1058
-730 1453 -391 392 -872 635 -1432 723 -120 19 -444 32 -550 23z m530 -1334
c177 -22 328 -78 419 -156 169 -146 187 -396 43 -632 -69 -114 -192 -220 -334
-288 l-53 -25 82 3 c91 3 93 2 93 -61 0 -38 -1 -38 -46 -45 -26 -3 -72 -6
-103 -6 -31 0 -86 -3 -123 -6 l-67 -7 57 -27 c77 -36 165 -119 197 -185 41
-83 41 -138 1 -430 -58 -416 -62 -460 -47 -489 25 -46 72 -40 135 16 43 37 45
38 56 18 9 -17 5 -26 -34 -64 -63 -61 -145 -98 -231 -103 -95 -7 -151 10 -197
58 -65 69 -66 79 -15 463 61 455 59 434 46 517 -16 94 -55 154 -124 189 -48
24 -56 25 -199 22 -82 -2 -158 -7 -170 -11 -18 -7 -38 -79 -157 -555 -92 -367
-133 -549 -125 -551 6 -2 49 -14 96 -25 47 -12 86 -23 88 -24 1 -2 0 -11 -4
-20 -6 -14 -41 -16 -365 -16 -197 0 -359 3 -359 8 1 21 24 31 120 54 57 14
108 31 112 39 8 15 268 1051 268 1069 0 7 -24 10 -62 8 l-63 -3 -3 51 -3 51
78 7 c42 3 80 9 84 14 3 4 63 237 133 517 70 281 129 518 132 527 5 17 -10 24
-143 58 -32 8 -43 16 -43 30 0 20 9 20 373 20 205 0 411 -5 457 -10z"/>
<path d="M2441 3186 c-73 -295 -132 -538 -130 -540 2 -1 80 1 173 6 139 8 180
14 233 33 249 94 423 372 423 675 0 170 -75 277 -230 330 -50 17 -97 24 -200
27 l-135 6 -134 -537z"/>
</g>
</svg>
