<svg width="513" height="513" viewBox="0 0 513 513" fill="none" xmlns="http://www.w3.org/2000/svg">
<path d="M241.522 9.63073C250.793 4.28862 262.207 4.28862 271.478 9.63073L463.614 120.344C472.908 125.7 478.635 135.61 478.635 146.337V367.663C478.635 378.39 472.908 388.3 463.614 393.656L271.478 504.369C262.207 509.711 250.793 509.711 241.522 504.369L49.3864 393.656C40.092 388.3 34.3645 378.39 34.3645 367.663V146.337C34.3645 135.61 40.092 125.7 49.3864 120.344L241.522 9.63073Z" fill="white"/>
<path fill-rule="evenodd" clip-rule="evenodd" d="M290.01 9.0884C268.604 -3.02937 242.231 -3.02937 220.826 9.08784L54.6277 103.173C33.2235 115.291 20.0391 137.683 20.0391 161.913V350.092C20.0391 374.32 33.2224 396.712 54.6298 408.829L220.823 502.913C242.231 515.03 268.602 515.03 290.01 502.913L456.198 408.832L456.211 408.825C477.617 396.711 490.796 374.32 490.796 350.092V161.913C490.796 137.683 477.613 115.292 456.202 103.172L290.01 9.0884ZM277.04 27.1803C263.66 19.6076 247.179 19.6076 233.796 27.1809L64.1236 123.234C50.7453 130.808 42.5052 144.8 42.5052 159.947V352.059C42.5052 367.199 50.7442 381.19 64.1163 388.767L64.1292 388.775L233.787 484.813L233.811 484.829C247.182 492.396 263.654 492.401 277.026 484.829L277.051 484.813L446.711 388.773L446.719 388.767C460.098 381.191 468.334 367.201 468.334 352.059V159.947C468.334 144.801 460.093 130.809 446.711 123.233L277.04 27.1803ZM238.089 46.0867C248.793 40.0276 261.979 40.0276 272.681 46.0863L432.276 136.433C442.978 142.491 449.57 153.686 449.57 165.802V346.5C449.57 358.615 442.978 369.81 432.276 375.868L272.689 466.21L272.674 466.218C261.976 472.272 248.797 472.272 238.099 466.218L238.08 466.21L78.4942 375.868C67.7926 369.81 61.2004 358.615 61.2004 346.5V165.802C61.2004 153.686 67.7926 142.491 78.4942 136.433L238.089 46.0867ZM271.519 167.869L260.479 142.434H308.04C343.858 142.434 372.897 170.903 372.897 206.021C372.897 230.38 358.925 251.538 338.41 262.219L372.897 341.674H346.953L304.635 244.173H308.04C315.416 244.173 322.312 242.161 328.189 238.668L328.204 238.659L328.217 238.651C339.45 231.961 346.953 219.848 346.953 206.021C346.953 184.949 329.53 167.869 308.04 167.869H271.519ZM225.89 142.434L139.416 341.674H165.357L225.89 201.782L286.422 341.674H312.364L225.89 142.434Z" fill="#197FF8"/>
</svg>
